<svg xmlns="http://www.w3.org/2000/svg" viewBox="0 0 317.25 38.14"><defs><style>.cls-1{fill:#fff;}</style></defs><title>Recurso 51</title><g id="Capa_2" data-name="Capa 2"><g id="Capa_1-2" data-name="Capa 1"><rect class="cls-1" x="2.48" y="2.31" width="313.19" height="33.5"/><path class="cls-1" d="M216.8,37.16,215,37.05A7.05,7.05,0,0,0,216.8,37.16Z"/><path class="cls-1" d="M205.35.91l.43,0Z"/><path class="cls-1" d="M147.59,33.51h.1l.46,0Z"/><path class="cls-1" d="M238.42,33.81c-23.84-.13-30.16-.64-54.86-.43-11.78,0-24.36.07-35.87.13-5.47.4-15.13,0-21.6.34l-2.5-.22a69.84,69.84,0,0,1-7.09.06l.14-.06c-3.33.17-7.09.07-8.74.15l.14-.06-4.05,0,.7-.1c-5.81.18-11.79.19-17.07.11l.44.27c-11.27-.3-15.4.26-25.58-.1l.14-.06c-12.86.71-20.33-.49-33.59.19,1.65-.09-.71-.14-.57-.21-6.11.08-12.63.12-12.73.65-4.45,0-3.62-.16-4.2-.37a6.9,6.9,0,0,1-2.35.25l-2.35.07-2.19,0,.38,0,.79,0-1.93,0-.06-5.23-.43,2c.12-5.28.53-1.34.42-6.4l-.36.06c.07-7.3.62-11.58.89-18.65,0-.65,0-1.31,0-2h8.8L23.92,4.1l21.57-.2c14.3-.12,28.35-.17,41.42.13l1.21.28c.53.39,7.54-.59,8.58-.23l3.18-.18c.89.07,2.78.15,1.2.24,2.93,0,3,0,5.12-.17l3.16.25C121,4.41,130.82,3.93,143,4c14.66.5,42.26,0,58.16-.23,22.36-.6,48.35,1,71.24.31a14.91,14.91,0,0,0,1.61,0,5.49,5.49,0,0,0,1-.1L296,4.05,314,4c0,2.58.06,5.27.09,7.92,0,3.22.09,6.38.14,9.31.11,5.85.28,10.74.51,13.16.46,4.84,1.2-.22,2.36-27.31l.08.52c0-.94,0-1.85,0-2.73,0-1.43,0-2.81,0-4.14L309.66.66h-5.37c-3.43,0-6.62.14-9.92.32C293.12.46,285,.94,282.27.76l.25,0c-7,.41-14.4-.34-21.14,0a6.32,6.32,0,0,1,1.95-.19c-4.91.06-11.63.18-12-.13C239.61.5,223.23.36,215.72.86l.51-.09c-4.28.34-5.54,0-10.33.22a3.43,3.43,0,0,1-.55-.08c-4.66.33-13.61,0-17.39.2L187.72.9l-9.29,0,3.47,0c-1.2.57-7-.36-13.76,0-6.31-.07-12.79,1.19-19.34.91-3.13.26,2.75-.44-1.92-.23-.15-.3,2.18-.19,1-.42-4.59.14-7.52-.31-13.18-.11l-.23-.23c-7.37.42-13.91-.3-18.82.1-7.61.19-5.1-.69-13-.23L99.52.47c-3.38,0-2.42.39-6.18.24.23-.2-4.75-.16-2.55-.35C82.28.05,73.52.8,62.32.28c-2.43.38-8.07.15-9.89.44-.3-.17-11.3,0-5-.39a5.81,5.81,0,0,1,1.44,0l.76-.22C43.27-.28,38.05.38,31.73.32c1.87.07,4.37,0,2.7.21L28.56.5,29.78.3,21,.19l1.21.24C18,.31,16.45-.1,11.62.24c-2.19.19,4.05.32-.47.39l-4-.11L4.73.46.58.4C.5,5.2.41,10.46.33,15.24c.27-.68.26,1.28.32,3.31l-.23.23c.32,7.76-.51,2.85-.26,10.54L0,28.64l.48,2c.06.78.09,1.43.11,2,0,.32,0,.61,0,.88s0,.77,0,1.1c0,1.35-.05,2.25-.1,3.12,1,.06,1.87.12,3.53.12h1.2l.94,0c.71,0,1.56-.09,2.62-.17-3.05,0-1.43-.51,2.32-.41l-1,.22c2.08,0,2.77-.14,4.16-.09-1.24.12-.66.32,2.4.28l-2,.28,5.78-.41c4.46.24,11.53-.06,13.36.26,0,0,9.59.15,11.79-.2-1.93.22,3.36.3,1.85.55A107.27,107.27,0,0,1,60.23,38l-.55,0c10.87.26,18.58-.36,28.33,0-.44-.27,4.71-.12,3.44-.47,10.09-.34,18.39.7,22-.36,4.59-.06,5.44.25,7.81.3l-1.09.06c8.6-.09,11.09-.1,17.48-.07,3.19-.11,3.69-.6,9.4-.48-1.84.19.49.16,2.63.16-1.37,0-1.79.1,1,.23.39-.06,1-.1,1.57-.13,0,0,.14,0,.08.05,3.57-.07,3-.13,1.29-.16.08,0-.06-.06-.57-.12,3.7.25,10.32,0,10.77.32,10.73-.08,18.4-.42,27.32-.56,1,.18-1.08.33-3.67.4l6.33-.06c-.05.24-3.64.14-5.59.19,7.54.4,15.55-.4,24.39,0l1.83-.2.53,0a18.6,18.6,0,0,1,3.26-.28c1.25.22-.08.5,4.29.49,3.47.21,9.84-.11,14.37-.22-2.44,0-1.65-.16-.6-.24,2.19,0,3.45.21,5.14.12l.21.29c-.86-.27,5.71-.29,6.52-.41,1.25.21-3.39.18-3.94.35l13.16,0c4.69-.23-.85-.28,1.39-.54,4.14-.06,8.17-.26,12.92-.08l-1.51-.26c7.77-.21,12.42-.18,17.65.09,57.86-2.12,12.19-2.9,12.19-2.9C277.29,32.85,265.53,33.61,238.42,33.81Z"/></g></g></svg>