<svg xmlns="http://www.w3.org/2000/svg" viewBox="0 0 317.35 38.25"><defs><style>.cls-1{fill:#444;}</style></defs><title>Recurso 61</title><g id="Capa_2" data-name="Capa 2"><g id="Capa_1-2" data-name="Capa 1"><rect class="cls-1" x="2.54" y="2.36" width="313.19" height="33.5"/><path class="cls-1" d="M216.85,37.25l-1.77-.11A6.83,6.83,0,0,0,216.85,37.25Z"/><path class="cls-1" d="M205.41.93l.42,0Z"/><path class="cls-1" d="M147.65,33.51h.09l.47,0Z"/><path class="cls-1" d="M238.48,33.82c-23.84-.14-30.16-.66-54.86-.45-11.79,0-24.36.08-35.88.14-5.46.41-15.12,0-21.59.35l-2.51-.23c-2.23.11-4.84.19-7.08.07l.14-.07c-3.33.18-7.09.07-8.74.16l.14-.07-4,0,.7-.09c-5.81.18-11.79.19-17.07.11l.44.28c-11.27-.31-15.4.26-25.58-.11l.14-.06c-12.86.72-20.33-.5-33.59.19,1.65-.09-.71-.14-.58-.21-6.1.08-12.62.12-12.72.66-4.45,0-3.62-.17-4.2-.37a7.22,7.22,0,0,1-2.35.25l-2.35.07-2.16,0,.38,0,.76-.05-1.9,0-.06-5.19-.45,2c.13-5.28.55-1.34.44-6.4l-.37.07c.07-7.3.64-11.59.91-18.65,0-.64,0-1.28,0-1.93l8.75,0L24,4.19,45.55,4c14.3-.12,28.35-.18,41.42.14l1.21.28c.52.41,7.54-.61,8.58-.23L99.94,4c.89.08,2.78.16,1.19.25a51.24,51.24,0,0,0,5.13-.18l3.16.26c11.6.19,21.46-.3,33.67-.2,14.66.52,42.26,0,58.16-.23,22.35-.61,48.35,1,71.24.32.37,0,1,0,1.61,0a8.79,8.79,0,0,0,1-.1l20.94,0h5.84l12.07,0c0,2.56.06,5.24.09,7.88.05,3.21.1,6.38.14,9.3.12,5.85.29,10.75.53,13.17.47,4.83,1.22-.23,2.41-27.32l.09.52c0-.95,0-1.87.05-2.76,0-1.43,0-2.81,0-4.14L309.72.68h-5.38c-3.43,0-6.61.14-9.91.32C293.18.47,285,1,282.32.78l.26,0c-7,.42-14.4-.36-21.15,0a6.18,6.18,0,0,1,2-.2c-4.91.07-11.63.19-12-.13-11.73.09-28.11-.06-35.62.45l.51-.09C212,1.13,210.75.84,206,1a3.43,3.43,0,0,1-.55-.08c-4.66.34-13.61.06-17.39.2l-.24-.21-9.29,0L182,1c-1.2.59-7-.36-13.77,0C161.89,1,155.4,2.24,148.85,2c-3.12.28,2.75-.44-1.91-.23-.16-.3,2.18-.19,1-.43-4.59.14-7.52-.31-13.18-.11l-.23-.24c-7.37.44-13.92-.31-18.83.1-7.6.2-5.1-.7-13-.23L99.58.49C96.19.43,97.16.88,93.4.72c.23-.2-4.75-.16-2.55-.35C82.34.05,73.58.82,62.38.28c-2.43.4-8.07.16-9.89.46-.3-.17-11.3,0-5-.4A5.32,5.32,0,0,1,49,.38l.76-.23C43.33-.29,38.11.39,31.79.32c1.87.08,4.37.06,2.7.22l-5.87,0,1.22-.2L21.09.2l1.2.24C18,.32,16.51-.1,11.68.25c-2.19.19,4.05.32-.47.4l-4-.12L4.75.47.59.41C.51,5.23.42,10.5.34,15.3c.28-.69.27,1.28.32,3.3l-.24.24C.75,26.59-.1,21.68.17,29.38L0,28.7l.5,2c.1,1.63.13,2.34.13,4,0,1.35-.05,2.25-.09,3.12,1,.06,1.86.12,3.52.12H5.3l1,0c.71,0,1.56-.1,2.62-.19-3,0-1.44-.52,2.32-.42l-.95.23c2.08,0,2.77-.14,4.16-.09-1.24.12-.66.33,2.4.29l-2.05.29,5.77-.42c4.47.24,11.53-.07,13.37.26,0,0,9.59.15,11.79-.2-1.93.22,3.36.3,1.85.56a105.1,105.1,0,0,1,12.76-.19l-.55,0c10.87.27,18.58-.37,28.33,0-.44-.27,4.71-.12,3.44-.47,10.09-.35,18.39.71,22-.38,4.59-.05,5.44.26,7.81.31l-1.1.06c8.6-.09,11.1-.1,17.49-.07,3.19-.11,3.69-.61,9.4-.49-1.85.2.49.16,2.63.16-1.37,0-1.79.11,1,.24.4-.06,1-.1,1.58-.13,0,0,.14,0,.08,0,3.57-.07,3-.13,1.29-.16.08,0-.06-.07-.57-.13,3.7.26,10.32,0,10.77.33,10.73-.08,18.39-.44,27.32-.57,1,.18-1.08.34-3.67.4l6.33-.06c0,.25-3.64.15-5.59.2,7.54.41,15.55-.41,24.39,0l1.83-.2.53,0a16.37,16.37,0,0,1,3.26-.29c1.25.22-.08.51,4.29.5,3.46.21,9.84-.11,14.37-.23-2.44,0-1.66-.16-.6-.24,2.18,0,3.44.22,5.14.12l.21.3c-.87-.28,5.71-.3,6.52-.43,1.25.23-3.39.19-3.94.36l13.16,0c4.69-.23-.85-.28,1.39-.55,4.13-.06,8.17-.26,12.91-.08l-1.5-.27c7.77-.21,12.42-.18,17.65.09,57.86-2.16,12.19-3,12.19-3C277.35,32.83,265.59,33.61,238.48,33.82Z"/></g></g></svg>